<?xml version="1.0" standalone="no"?>
<!DOCTYPE svg PUBLIC "-//W3C//DTD SVG 20010904//EN"
 "http://www.w3.org/TR/2001/REC-SVG-20010904/DTD/svg10.dtd">
<svg version="1.0" xmlns="http://www.w3.org/2000/svg"
 width="3072.000000pt" height="1584.000000pt" viewBox="0 0 3072.000000 1584.000000"
 preserveAspectRatio="xMidYMid meet">

<g transform="translate(0.000000,1584.000000) scale(0.100000,-0.100000)"
fill="#000000" stroke="none">
<path d="M20115 10289 c-67 -50 -251 -153 -304 -170 -12 -4 -3 -25 36 -90 27
-46 58 -99 67 -116 9 -18 21 -33 26 -33 5 0 42 20 82 43 40 24 128 77 195 117
68 40 121 75 119 79 -30 55 -129 222 -134 225 -4 2 -43 -23 -87 -55z"/>
<path d="M15402 8935 c-89 -20 -144 -49 -211 -111 -100 -92 -145 -207 -143
-364 2 -142 37 -232 123 -318 51 -51 92 -74 173 -97 73 -21 263 -16 344 9 l52
17 0 90 c0 83 -2 90 -17 84 -87 -38 -131 -47 -213 -43 -93 5 -126 17 -179 70
-54 52 -75 110 -75 203 0 114 16 160 78 222 40 40 64 55 110 68 74 22 174 15
242 -14 26 -12 48 -21 50 -21 2 0 4 42 4 94 l0 94 -46 11 c-76 19 -222 22
-292 6z"/>
<path d="M16449 8941 c-165 -31 -265 -147 -245 -287 14 -106 65 -158 234 -239
131 -64 162 -90 162 -138 0 -118 -225 -130 -377 -21 l-23 16 0 -96 c0 -94 0
-96 28 -110 84 -43 319 -47 424 -7 136 52 196 203 134 337 -31 67 -87 111
-218 172 -59 28 -119 62 -133 76 -27 27 -32 64 -14 98 28 53 180 66 284 23 33
-14 61 -25 63 -25 1 0 2 40 2 89 l0 89 -47 12 c-62 15 -215 21 -274 11z"/>
<path d="M13920 8485 l0 -445 100 0 100 0 0 169 0 169 27 5 c67 13 90 -11 231
-243 l58 -95 112 -3 c62 -1 112 0 112 4 0 21 -214 326 -252 360 l-47 40 36 13
c47 17 109 75 136 125 30 57 29 164 -2 224 -26 52 -92 96 -162 111 -28 6 -140
11 -249 11 l-200 0 0 -445z m376 282 c62 -32 71 -132 18 -188 -32 -33 -78 -49
-146 -49 l-48 0 0 131 0 132 73 -5 c39 -3 86 -12 103 -21z"/>
<path d="M14783 8223 c-34 -7 -73 -59 -73 -98 0 -55 36 -87 101 -93 49 -4 59
-1 87 23 26 22 32 34 32 67 0 52 -14 77 -55 94 -34 14 -50 15 -92 7z"/>
<path d="M15912 8215 c-38 -17 -63 -66 -55 -108 8 -41 56 -77 104 -77 103 0
155 90 92 160 -34 36 -92 47 -141 25z"/>
<path d="M18815 7798 c-2 -7 -6 -56 -9 -108 -7 -168 -25 -393 -37 -455 -28
-154 -120 -518 -150 -590 -11 -27 -28 -70 -36 -95 -9 -25 -33 -85 -53 -135
-21 -49 -41 -100 -45 -112 l-6 -23 703 -2 c387 -2 843 -1 1014 0 210 3 314 0
318 -7 4 -6 4 -355 0 -776 l-7 -765 -169 0 -168 0 0 -667 1 -668 30 35 c659
753 1125 1609 1402 2570 94 324 151 616 207 1045 17 133 40 492 40 633 l0 132
-1515 0 c-1204 0 -1517 -3 -1520 -12z m1055 -468 c0 -5 -2 -10 -4 -10 -3 0 -8
5 -11 10 -3 6 -1 10 4 10 6 0 11 -4 11 -10z m-117 -17 c-7 -2 -19 -2 -25 0 -7
3 -2 5 12 5 14 0 19 -2 13 -5z m-70 -10 c-7 -2 -19 -2 -25 0 -7 3 -2 5 12 5
14 0 19 -2 13 -5z m-172 -46 c-10 -9 -11 -8 -5 6 3 10 9 15 12 12 3 -3 0 -11
-7 -18z m419 -47 c0 -8 -7 -2 -15 14 -8 15 -15 33 -15 40 1 16 29 -36 30 -54z
m123 -107 c-7 -2 -21 -2 -30 0 -10 3 -4 5 12 5 17 0 24 -2 18 -5z m47 -23
c-20 -13 -33 -13 -25 0 3 6 14 10 23 10 15 0 15 -2 2 -10z m-43 -6 c-3 -3 -12
-4 -19 -1 -8 3 -5 6 6 6 11 1 17 -2 13 -5z m-572 -13 c3 -5 1 -12 -5 -16 -5
-3 -10 1 -10 9 0 18 6 21 15 7z m522 3 c-3 -3 -12 -4 -19 -1 -8 3 -5 6 6 6 11
1 17 -2 13 -5z m-548 -28 c-2 -2 -20 -11 -39 -20 l-35 -17 25 20 c14 11 31 21
39 21 8 0 12 -2 10 -4z m776 -6 c3 -5 2 -10 -4 -10 -5 0 -13 5 -16 10 -3 6 -2
10 4 10 5 0 13 -4 16 -10z m242 -16 c-3 -3 -12 -4 -19 -1 -8 3 -5 6 6 6 11 1
17 -2 13 -5z m93 0 c0 -7 -27 -34 -34 -34 -4 0 -1 9 6 20 12 19 28 27 28 14z
m-1100 -8 c0 -2 -7 -6 -15 -10 -8 -3 -15 -1 -15 4 0 6 7 10 15 10 8 0 15 -2
15 -4z m1045 -6 c3 -5 -1 -10 -10 -10 -9 0 -13 5 -10 10 3 6 8 10 10 10 2 0 7
-4 10 -10z m-95 -10 c-8 -5 -24 -9 -35 -9 -16 1 -16 2 5 9 35 11 48 11 30 0z
m-993 -6 c-3 -3 -12 -4 -19 -1 -8 3 -5 6 6 6 11 1 17 -2 13 -5z m1050 0 c-3
-3 -12 -4 -19 -1 -8 3 -5 6 6 6 11 1 17 -2 13 -5z m176 -49 c-3 -9 -8 -14 -10
-11 -3 3 -2 9 2 15 9 16 15 13 8 -4z m-1427 -82 c-10 -10 -19 5 -10 18 6 11 8
11 12 0 2 -7 1 -15 -2 -18z m1521 -83 c-28 -22 -37 -25 -37 -10 0 6 7 10 15
10 8 0 15 5 15 10 0 6 7 10 16 10 12 0 10 -5 -9 -20z m-1872 -118 c-11 -11
-27 17 -20 35 6 16 8 16 16 -6 5 -13 7 -26 4 -29z m835 -12 c8 -5 11 -10 5
-10 -5 0 -17 5 -25 10 -8 5 -10 10 -5 10 6 0 17 -5 25 -10z m225 0 c3 -5 -1
-10 -10 -10 -9 0 -13 5 -10 10 3 6 8 10 10 10 2 0 7 -4 10 -10z m-122 -7 c-7
-2 -19 -2 -25 0 -7 3 -2 5 12 5 14 0 19 -2 13 -5z m202 -3 c-3 -5 -10 -10 -16
-10 -5 0 -9 5 -9 10 0 6 7 10 16 10 8 0 12 -4 9 -10z m-350 -10 c3 -5 1 -10
-4 -10 -6 0 -11 5 -11 10 0 6 2 10 4 10 3 0 8 -4 11 -10z m218 3 c-7 -2 -19
-2 -25 0 -7 3 -2 5 12 5 14 0 19 -2 13 -5z m-303 -69 c0 -8 -5 -12 -10 -9 -6
4 -8 11 -5 16 9 14 15 11 15 -7z m1047 -6 c-3 -8 -6 -5 -6 6 -1 11 2 17 5 13
3 -3 4 -12 1 -19z m-527 -13 c11 -13 10 -14 -4 -9 -9 3 -16 10 -16 15 0 13 6
11 20 -6z m550 -31 c0 -8 -5 -12 -10 -9 -6 4 -8 11 -5 16 9 14 15 11 15 -7z
m-1810 -28 c0 -3 -4 -8 -10 -11 -5 -3 -10 -1 -10 4 0 6 5 11 10 11 6 0 10 -2
10 -4z m1335 -36 c3 -5 1 -10 -4 -10 -6 0 -11 5 -11 10 0 6 2 10 4 10 3 0 8
-4 11 -10z m-1225 -56 c0 -2 -7 -4 -15 -4 -8 0 -15 4 -15 10 0 5 7 7 15 4 8
-4 15 -8 15 -10z m1260 -15 c0 -6 -4 -7 -10 -4 -5 3 -10 11 -10 16 0 6 5 7 10
4 6 -3 10 -11 10 -16z m-1206 -48 c5 -7 41 -8 41 -1 0 1 8 3 18 5 9 2 15 -1
11 -6 -3 -5 63 -9 161 -9 91 0 164 3 161 8 -2 4 14 5 37 3 l42 -5 -40 -6 -40
-6 35 -5 c19 -2 -68 -2 -194 0 -179 2 -233 6 -244 17 -7 8 -9 14 -3 14 5 0 12
-4 15 -9z m294 2 c-26 -2 -71 -2 -100 0 -29 2 -8 3 47 3 55 0 79 -1 53 -3z
m1182 -7 c0 -3 -4 -8 -10 -11 -5 -3 -10 -1 -10 4 0 6 5 11 10 11 6 0 10 -2 10
-4z m376 -263 c-7 -7 -26 7 -26 19 0 6 6 6 15 -2 9 -7 13 -15 11 -17z m-6 -39
c0 -2 -9 0 -20 6 -11 6 -20 13 -20 16 0 2 9 0 20 -6 11 -6 20 -13 20 -16z
m-40 -134 c0 -5 -2 -10 -4 -10 -3 0 -8 5 -11 10 -3 6 -1 10 4 10 6 0 11 -4 11
-10z m-43 -175 c-7 -14 -16 -25 -20 -25 -4 0 -3 9 3 20 6 11 8 20 5 20 -4 0
-3 5 0 10 13 21 23 -1 12 -25z m-47 10 c0 -8 -4 -15 -10 -15 -5 0 -10 7 -10
15 0 8 5 15 10 15 6 0 10 -7 10 -15z"/>
<path d="M12838 7349 c-21 -12 -24 -49 -6 -67 26 -26 88 -3 88 33 0 19 -28 45
-48 45 -9 0 -25 -5 -34 -11z"/>
<path d="M13250 7140 l0 -220 45 0 45 0 0 73 1 72 45 -72 46 -73 55 0 55 0
-38 53 c-21 28 -47 64 -57 79 l-19 26 44 59 c67 87 66 83 6 83 l-53 0 -42 -67
-43 -68 0 138 0 137 -45 0 -45 0 0 -220z"/>
<path d="M15630 7140 l0 -220 45 0 45 0 0 220 0 220 -45 0 -45 0 0 -220z"/>
<path d="M17198 7349 c-21 -12 -24 -49 -6 -67 26 -26 88 -3 88 33 0 19 -28 45
-48 45 -9 0 -25 -5 -34 -11z"/>
<path d="M13865 7328 c-111 -39 -167 -158 -131 -280 32 -110 143 -162 269
-127 35 9 37 12 37 51 0 34 -3 39 -17 33 -10 -4 -39 -10 -64 -12 -92 -10 -145
46 -137 144 4 44 11 60 37 86 30 30 36 32 106 32 l75 0 0 36 c0 34 -2 37 -37
43 -53 8 -103 6 -138 -6z"/>
<path d="M16035 7326 c-72 -27 -101 -93 -70 -160 13 -27 32 -43 78 -66 99 -49
117 -75 75 -104 -30 -21 -74 -20 -125 4 l-43 19 0 -44 c0 -40 3 -45 28 -52 44
-13 154 -9 190 6 40 17 62 56 62 109 0 54 -28 86 -109 126 -74 36 -88 63 -49
90 28 20 54 20 107 1 l41 -14 0 39 c0 21 -5 42 -11 46 -24 14 -134 14 -174 0z"/>
<path d="M12450 7125 l0 -205 45 0 45 0 0 80 c0 72 2 80 19 80 23 0 59 -41 98
-110 l28 -50 53 0 52 0 -37 61 c-21 34 -52 77 -69 95 -28 30 -29 34 -13 39 34
11 69 64 69 104 0 81 -55 111 -202 111 l-88 0 0 -205z m186 109 c16 -24 16
-27 -3 -52 -14 -19 -31 -28 -56 -30 l-37 -3 0 55 0 56 40 0 c31 0 43 -5 56
-26z"/>
<path d="M14875 7295 c-35 -10 -40 -16 -43 -43 -2 -24 -8 -32 -23 -32 -15 0
-19 -7 -19 -35 0 -28 4 -35 19 -35 17 0 19 -10 23 -96 4 -91 6 -98 32 -120 27
-24 60 -29 104 -18 17 5 22 14 22 39 0 29 -3 32 -21 28 -34 -9 -49 21 -49 99
l0 68 35 0 c33 0 35 2 35 35 0 33 -2 35 -34 35 -34 0 -35 1 -38 43 l-3 43 -40
-11z"/>
<path d="M18024 7300 c-54 -17 -84 -56 -84 -110 0 -61 19 -84 94 -113 68 -26
87 -47 66 -72 -11 -14 -26 -16 -70 -12 -30 2 -63 8 -72 12 -16 6 -18 1 -18
-33 0 -23 4 -43 9 -46 5 -4 36 -9 68 -12 114 -12 203 37 203 111 0 60 -22 90
-87 115 -32 13 -64 28 -70 33 -18 13 -16 44 3 51 25 10 93 7 115 -4 17 -10 19
-7 19 29 0 22 -5 43 -11 47 -19 11 -132 14 -165 4z"/>
<path d="M13043 7222 c-54 -16 -83 -67 -66 -119 6 -20 24 -35 61 -54 69 -33
79 -44 62 -64 -16 -19 -66 -19 -103 0 l-28 14 3 -36 c3 -34 6 -38 41 -46 54
-13 125 0 153 28 17 17 24 35 24 64 0 47 -15 64 -81 92 -82 36 -50 88 37 61
33 -10 34 -10 34 19 0 22 -6 32 -26 39 -28 11 -77 12 -111 2z"/>
<path d="M14185 7218 c-70 -24 -100 -83 -93 -176 4 -48 10 -60 41 -88 43 -40
95 -51 157 -35 82 22 116 78 108 177 -3 39 -11 61 -29 80 -45 50 -116 66 -184
42z m109 -80 c9 -12 16 -43 16 -68 0 -58 -22 -90 -61 -90 -45 0 -69 31 -69 90
0 37 5 55 20 70 27 27 75 26 94 -2z"/>
<path d="M14583 7210 c-27 -16 -33 -17 -33 -5 0 11 -12 15 -45 15 l-45 0 0
-150 0 -150 45 0 45 0 0 103 c0 112 11 137 58 137 33 0 42 -30 42 -139 l0
-101 45 0 45 0 0 110 c0 126 -14 174 -55 190 -39 15 -66 12 -102 -10z"/>
<path d="M15175 7218 c-11 -6 -25 -19 -32 -27 -11 -14 -12 -13 -13 7 0 19 -5
22 -45 22 l-45 0 0 -150 0 -150 45 0 45 0 0 93 c0 85 2 96 23 115 13 12 35 22
50 22 25 0 27 3 27 40 0 43 -15 51 -55 28z"/>
<path d="M15355 7218 c-70 -24 -100 -83 -93 -176 4 -48 10 -60 41 -88 43 -40
95 -51 157 -35 82 22 116 78 108 177 -3 39 -11 61 -29 80 -45 50 -116 66 -184
42z m109 -80 c9 -12 16 -43 16 -68 0 -58 -22 -90 -61 -90 -45 0 -69 31 -69 90
0 37 5 55 20 70 27 27 75 26 94 -2z"/>
<path d="M16361 7212 c-55 -27 -75 -63 -79 -140 -2 -54 1 -73 18 -100 34 -55
108 -75 193 -51 32 9 37 14 37 40 0 27 -2 30 -22 22 -63 -22 -138 4 -138 49 0
16 9 18 96 18 l97 0 -6 45 c-9 65 -33 104 -72 121 -46 19 -83 18 -124 -4z m96
-54 c6 -7 13 -23 16 -35 5 -22 2 -23 -49 -23 -44 0 -54 3 -54 17 0 41 64 70
87 41z"/>
<path d="M16725 7205 c-23 -22 -25 -23 -25 -5 0 17 -7 20 -45 20 l-45 0 0
-150 0 -150 45 0 45 0 0 93 c0 113 14 141 66 135 34 -4 34 -4 34 39 0 39 -2
43 -25 43 -14 0 -37 -11 -50 -25z"/>
<path d="M17425 7216 c-77 -33 -112 -128 -80 -212 27 -70 93 -103 181 -89 44
6 44 7 44 46 0 36 -2 39 -19 29 -57 -30 -119 1 -128 66 -4 34 -1 45 23 73 26
31 31 33 76 29 l48 -5 0 32 c0 25 -5 34 -22 39 -37 10 -91 6 -123 -8z"/>
<path d="M17701 7212 c-55 -27 -75 -63 -79 -140 -2 -54 1 -73 18 -100 34 -55
108 -75 193 -51 32 9 37 14 37 40 0 27 -2 30 -22 22 -63 -22 -138 4 -138 49 0
16 9 18 96 18 l97 0 -6 45 c-9 65 -33 104 -72 121 -46 19 -83 18 -124 -4z m96
-54 c6 -7 13 -23 16 -35 5 -22 2 -23 -49 -23 -44 0 -54 3 -54 17 0 41 64 70
87 41z"/>
<path d="M12820 7070 l0 -150 45 0 45 0 0 150 0 150 -45 0 -45 0 0 -150z"/>
<path d="M16830 7216 c0 -2 23 -70 51 -151 l52 -146 50 3 50 3 49 130 c26 72
51 138 54 148 5 14 -1 17 -40 17 l-45 0 -15 -55 c-9 -30 -23 -81 -33 -112 -9
-32 -18 -53 -20 -48 -1 6 -15 55 -31 110 l-27 100 -48 3 c-26 2 -47 1 -47 -2z"/>
<path d="M17180 7070 l0 -150 45 0 45 0 0 150 0 150 -45 0 -45 0 0 -150z"/>
<path d="M9447 6996 c-16 -13 -15 -14 16 -13 28 1 32 3 21 14 -15 16 -15 16
-37 -1z"/>
<path d="M9353 6936 c-15 -13 -35 -26 -43 -28 -8 -3 -1 -4 15 -2 17 3 35 11
41 19 6 8 16 15 23 15 6 0 11 5 11 10 0 16 -17 11 -47 -14z"/>
<path d="M9512 6943 c-16 -6 -5 -23 15 -23 9 0 22 -8 29 -17 11 -15 13 -15 13
-3 0 19 -40 48 -57 43z"/>
<path d="M10101 6926 c-17 -18 -20 -26 -10 -26 24 0 41 16 37 35 -2 14 -7 13
-27 -9z"/>
<path d="M10223 6925 c-19 -22 -17 -23 34 -23 l47 0 -24 19 c-30 22 -41 23
-57 4z"/>
<path d="M9215 6871 c-3 -5 -1 -12 5 -16 5 -3 10 1 10 9 0 18 -6 21 -15 7z"/>
<path d="M9580 6862 c0 -18 6 -22 33 -21 17 0 25 3 17 6 -8 3 -23 12 -32 21
-16 14 -18 13 -18 -6z"/>
<path d="M10310 6870 c0 -5 10 -10 23 -10 18 0 19 2 7 10 -19 13 -30 13 -30 0z"/>
<path d="M10020 6860 c-8 -5 -23 -11 -33 -14 -16 -5 -17 -8 -3 -21 18 -19 36
-19 36 -1 0 8 7 16 15 20 8 3 15 10 15 16 0 12 -9 12 -30 0z"/>
<path d="M10370 6857 c0 -18 17 -32 50 -42 14 -4 28 -13 32 -19 6 -8 8 -8 8 1
0 7 -20 26 -45 43 -31 21 -45 27 -45 17z"/>
<path d="M9680 6851 c0 -5 9 -11 20 -14 13 -3 20 0 20 9 0 8 -9 14 -20 14 -11
0 -20 -4 -20 -9z"/>
<path d="M9880 6850 c0 -5 12 -10 26 -10 14 0 23 4 19 10 -3 6 -15 10 -26 10
-10 0 -19 -4 -19 -10z"/>
<path d="M9179 6850 c0 -3 -2 -14 -4 -24 -2 -11 1 -29 8 -40 6 -12 13 -32 15
-45 2 -14 7 -32 12 -40 8 -14 10 -13 10 4 1 11 3 40 5 65 1 25 1 35 -2 23 -6
-32 -23 -29 -23 5 0 23 -18 67 -21 52z"/>
<path d="M10298 6823 c7 -3 16 -2 19 1 4 3 -2 6 -13 5 -11 0 -14 -3 -6 -6z"/>
<path d="M10420 6718 c0 -19 2 -20 10 -8 13 19 13 30 0 30 -5 0 -10 -10 -10
-22z"/>
<path d="M9216 6632 c-4 -13 -5 -26 -2 -29 10 -11 18 4 14 29 l-4 23 -8 -23z"/>
<path d="M10385 6640 c3 -5 10 -10 16 -10 5 0 9 5 9 10 0 6 -7 10 -16 10 -8 0
-12 -4 -9 -10z"/>
<path d="M9190 6586 c0 -9 5 -16 10 -16 6 0 10 4 10 9 0 6 -4 13 -10 16 -5 3
-10 -1 -10 -9z"/>
<path d="M10390 6580 c0 -5 5 -10 10 -10 6 0 10 5 10 10 0 6 -4 10 -10 10 -5
0 -10 -4 -10 -10z"/>
<path d="M10435 6561 c-3 -5 -1 -12 5 -16 5 -3 10 1 10 9 0 18 -6 21 -15 7z"/>
<path d="M9125 6506 c-9 -14 -15 -33 -13 -43 3 -13 9 -7 21 21 20 46 16 58 -8
22z"/>
<path d="M10370 6474 c0 -8 5 -12 10 -9 6 3 10 10 10 16 0 5 -4 9 -10 9 -5 0
-10 -7 -10 -16z"/>
<path d="M10450 6472 c0 -4 5 -13 11 -19 8 -8 8 -17 0 -32 -16 -29 -7 -27 13
3 17 27 12 56 -10 56 -8 0 -14 -4 -14 -8z"/>
<path d="M9088 6432 c-10 -2 -18 -8 -18 -13 0 -13 27 -11 35 2 9 13 4 16 -17
11z"/>
<path d="M9701 6399 c-13 -5 -21 -12 -18 -15 8 -8 77 7 77 17 0 11 -28 11 -59
-2z"/>
<path d="M9840 6400 c0 -5 12 -10 26 -10 14 0 23 4 19 10 -3 6 -15 10 -26 10
-10 0 -19 -4 -19 -10z"/>
<path d="M9920 6400 c0 -5 9 -10 19 -10 11 0 23 5 26 10 4 6 -5 10 -19 10 -14
0 -26 -4 -26 -10z"/>
<path d="M10295 6399 c-4 -6 -4 -13 -1 -16 3 -4 6 -1 6 5 0 6 8 13 18 15 15 4
15 5 0 6 -9 0 -20 -4 -23 -10z"/>
<path d="M10326 6385 c-24 -18 -21 -18 29 0 32 11 35 14 15 14 -14 0 -34 -6
-44 -14z"/>
<path d="M9620 6375 c0 -8 5 -15 10 -15 6 0 10 7 10 15 0 8 -4 15 -10 15 -5 0
-10 -7 -10 -15z"/>
<path d="M10016 6382 c-9 -14 9 -31 23 -23 7 5 10 14 7 20 -8 13 -23 14 -30 3z"/>
<path d="M9052 6360 c-16 -26 -15 -30 3 -30 9 0 15 9 15 25 0 30 -2 31 -18 5z"/>
<path d="M10293 6347 c4 -11 1 -17 -7 -17 -7 0 -19 -7 -26 -15 -10 -12 -7 -12
19 1 33 16 39 28 19 40 -8 5 -9 2 -5 -9z"/>
<path d="M9560 6341 c0 -11 31 -24 39 -16 3 3 -1 10 -9 15 -19 12 -30 12 -30
1z"/>
<path d="M10216 6314 c-9 -23 -8 -24 12 -24 14 0 15 2 2 10 -10 6 -11 10 -2
10 6 0 12 5 12 10 0 16 -17 12 -24 -6z"/>
<path d="M9025 6310 c-3 -5 -19 -10 -36 -10 -33 0 -39 -15 -9 -23 24 -6 70 13
70 31 0 14 -16 16 -25 2z"/>
<path d="M10008 6313 c7 -3 16 -2 19 1 4 3 -2 6 -13 5 -11 0 -14 -3 -6 -6z"/>
<path d="M9540 6295 c0 -8 4 -15 9 -15 5 0 11 7 15 15 3 9 0 15 -9 15 -8 0
-15 -7 -15 -15z"/>
<path d="M8895 6270 l-20 -9 20 0 c11 0 29 4 40 9 l20 9 -20 0 c-11 0 -29 -4
-40 -9z"/>
<path d="M9045 6261 c-6 -11 9 -23 19 -14 9 9 7 23 -3 23 -6 0 -12 -4 -16 -9z"/>
<path d="M10086 6255 c4 -8 13 -15 21 -15 12 0 12 2 -1 15 -8 8 -17 15 -20 15
-3 0 -3 -7 0 -15z"/>
<path d="M8812 6248 c-8 -8 -12 -60 -12 -168 0 -142 2 -159 19 -174 14 -13 28
-16 50 -11 48 10 48 26 -1 23 l-43 -3 -7 55 c-10 87 -9 188 2 195 6 3 10 21
10 40 0 22 6 38 18 44 15 10 15 10 -3 11 -12 0 -26 -5 -33 -12z"/>
<path d="M9490 6239 c-6 -11 -9 -25 -6 -32 2 -7 5 -4 5 6 1 9 5 17 10 17 5 0
11 7 15 15 8 23 -12 18 -24 -6z"/>
<path d="M9401 6154 c0 -11 3 -14 6 -6 3 7 2 16 -1 19 -3 4 -6 -2 -5 -13z"/>
<path d="M9440 6133 l0 -38 15 29 c19 36 19 46 0 46 -11 0 -15 -11 -15 -37z"/>
<path d="M9440 6046 c0 -25 5 -46 10 -46 6 0 10 18 10 39 0 22 -4 43 -10 46
-6 4 -10 -12 -10 -39z"/>
<path d="M9410 6021 c0 -11 4 -22 9 -25 4 -3 6 6 3 19 -5 30 -12 33 -12 6z"/>
<path d="M9455 5930 c-3 -5 -1 -10 4 -10 6 0 11 5 11 10 0 6 -2 10 -4 10 -3 0
-8 -4 -11 -10z"/>
<path d="M9480 5886 c0 -8 4 -17 9 -20 5 -4 7 3 4 14 -6 23 -13 26 -13 6z"/>
<path d="M10684 5878 c6 -4 20 -8 31 -9 l20 0 -20 -9 c-13 -6 -2 -7 30 -3 61
7 70 13 24 14 l-34 1 30 8 c22 5 14 7 -31 6 -34 -1 -57 -4 -50 -8z"/>
<path d="M10648 5873 c10 -4 9 -8 -4 -18 -15 -10 -12 -11 16 -7 31 4 32 6 15
18 -10 8 -24 14 -29 13 -6 0 -5 -3 2 -6z"/>
<path d="M9502 5841 c-9 -5 -6 -13 10 -28 13 -11 28 -28 33 -37 7 -13 19 -16
40 -13 28 4 29 5 8 12 -13 4 -23 11 -23 15 0 4 -12 12 -26 18 -14 7 -23 16
-19 21 7 13 -8 21 -23 12z"/>
<path d="M10758 5843 c6 -2 18 -2 25 0 6 3 1 5 -13 5 -14 0 -19 -2 -12 -5z"/>
<path d="M9021 5810 c11 -30 29 -41 29 -17 -1 13 -24 47 -33 47 -3 0 -1 -13 4
-30z"/>
<path d="M10635 5833 c-11 -3 -25 -9 -32 -15 -7 -6 -14 -5 -18 1 -4 7 -14 5
-29 -5 -21 -13 -22 -18 -12 -39 7 -15 13 -19 18 -12 4 6 2 17 -4 24 -6 7 -7
14 -2 14 5 1 24 3 42 5 18 2 45 10 60 19 26 14 17 17 -23 8z"/>
<path d="M10698 5833 c6 -2 18 -2 25 0 6 3 1 5 -13 5 -14 0 -19 -2 -12 -5z"/>
<path d="M10515 5760 c3 -5 8 -10 11 -10 2 0 4 5 4 10 0 6 -5 10 -11 10 -5 0
-7 -4 -4 -10z"/>
<path d="M9040 5753 c0 -5 4 -13 9 -18 5 -6 11 -19 14 -30 3 -11 5 -5 4 14 -1
19 -8 36 -14 39 -7 2 -13 0 -13 -5z"/>
<path d="M10496 5726 c3 -13 1 -27 -6 -31 -7 -5 -8 -11 -1 -19 7 -8 0 -23 -24
-51 -19 -21 -35 -47 -35 -58 0 -16 4 -14 24 10 48 58 78 115 67 126 -6 6 -11
19 -11 29 0 10 -5 18 -10 18 -6 0 -8 -10 -4 -24z"/>
<path d="M9640 5730 c0 -5 7 -10 15 -10 8 0 15 5 15 10 0 6 -7 10 -15 10 -8 0
-15 -4 -15 -10z"/>
<path d="M10475 5720 c-3 -5 -1 -10 4 -10 6 0 11 5 11 10 0 6 -2 10 -4 10 -3
0 -8 -4 -11 -10z"/>
<path d="M9658 5714 c-24 -7 -23 -24 2 -24 11 0 20 5 20 10 0 6 9 10 20 10 22
0 27 -16 8 -22 -7 -3 10 -4 37 -4 l50 1 7 -45 6 -45 -1 48 c-1 26 1 47 5 47 5
0 9 -19 10 -42 1 -41 1 -41 5 -8 3 19 10 38 16 42 19 12 0 20 -50 23 -26 1
-64 5 -83 8 -19 3 -43 3 -52 1z"/>
<path d="M10447 5659 c-4 -16 -3 -18 9 -8 7 6 11 15 8 20 -8 13 -11 11 -17
-12z"/>
<path d="M9102 5651 c-11 -7 -11 -11 2 -23 8 -9 13 -18 10 -21 -3 -2 2 -7 11
-10 17 -7 20 4 6 19 -5 5 -11 17 -13 26 -2 12 -7 15 -16 9z"/>
<path d="M9817 5594 c-3 -4 -2 -15 4 -25 5 -11 7 -36 4 -57 -3 -20 -2 -31 1
-24 3 6 9 10 12 8 9 -5 2 87 -7 97 -4 4 -10 4 -14 1z"/>
<path d="M9151 5582 c-19 -6 -12 -20 12 -24 23 -3 24 -9 16 -78 -6 -49 13 -53
23 -5 5 21 13 42 18 45 13 8 -53 67 -69 62z"/>
<path d="M9820 5447 c0 -7 9 -18 20 -25 12 -7 20 -8 20 -2 0 5 -4 10 -10 10
-5 0 -10 7 -10 15 0 8 -4 15 -10 15 -5 0 -10 -6 -10 -13z"/>
<path d="M9824 5397 c7 -32 -2 -57 -14 -37 -5 7 -7 2 -7 -13 0 -25 0 -26 23
-9 23 17 24 54 1 77 -6 7 -7 1 -3 -18z"/>
<path d="M9862 5375 c0 -16 2 -22 5 -12 2 9 2 23 0 30 -3 6 -5 -1 -5 -18z"/>
<path d="M9829 5321 c-31 -35 -32 -46 -1 -17 18 17 32 31 32 33 0 8 -17 -1
-31 -16z"/>
<path d="M9137 5316 c-4 -10 -5 -21 -2 -24 9 -9 17 6 13 25 -3 17 -4 17 -11
-1z"/>
<path d="M9477 5257 c-3 -7 -3 -25 0 -40 5 -28 -3 -32 -49 -28 -10 1 -18 -3
-18 -8 0 -6 5 -11 10 -11 6 0 10 -7 10 -16 0 -9 -5 -13 -12 -10 -7 3 -21 9
-30 12 -10 4 -18 10 -18 14 0 5 -13 11 -29 15 -19 4 -28 12 -27 23 1 11 -8 18
-23 20 -23 4 -23 4 -5 -22 11 -14 27 -26 37 -26 9 0 17 -3 17 -8 0 -4 16 -16
35 -26 29 -16 40 -17 61 -8 14 7 22 17 19 22 -3 6 3 10 13 10 22 0 46 23 35
33 -3 4 -2 7 4 7 17 0 64 41 58 50 -3 5 -17 5 -32 -1 -17 -6 -30 -6 -38 1 -9
8 -14 7 -18 -3z"/>
<path d="M9610 5258 c14 -6 44 -10 68 -9 26 2 42 -2 42 -9 0 -6 5 -8 10 -5 6
3 10 12 10 19 0 8 -23 13 -77 14 -64 1 -74 -1 -53 -10z"/>
<path d="M9756 5244 c-5 -14 -4 -15 9 -4 17 14 19 20 6 20 -5 0 -12 -7 -15
-16z"/>
<path d="M15830 4279 c-41 -5 -82 -12 -90 -15 -23 -11 -188 -24 -355 -30 -98
-4 -152 -10 -157 -17 -4 -7 -8 -693 -8 -1524 l0 -1513 22 0 c144 0 608 30 778
51 1339 162 2552 705 3585 1603 98 86 435 417 435 428 0 4 -206 8 -457 8
l-458 -1 -244 -239 c-134 -132 -246 -240 -250 -240 -4 0 -116 108 -249 240
l-243 240 -58 0 c-76 0 -91 -6 -91 -39 l0 -26 -13 25 -13 25 -293 3 c-182 2
-298 -1 -304 -7 -6 -6 -15 -5 -24 5 -11 11 -45 14 -143 14 l-129 0 0 346 c0
190 -3 349 -6 354 -3 5 -13 6 -23 3 -14 -6 -15 -4 -4 9 10 13 8 18 -14 33 -22
14 -28 15 -35 4 -7 -11 -9 -10 -9 4 0 9 -6 17 -12 18 -7 1 -78 3 -158 4 -80 2
-163 5 -185 6 -22 1 -84 1 -138 -1 -54 -1 -101 0 -104 4 -3 3 -107 6 -230 6
-171 0 -223 3 -224 13 -1 6 -1 49 1 94 2 80 -5 124 -18 122 -4 -1 -41 -5 -82
-10z m1115 -259 c3 -5 -1 -10 -9 -10 -9 0 -16 5 -16 10 0 6 4 10 9 10 6 0 13
-4 16 -10z m62 -37 c-9 -9 -20 -13 -24 -9 -4 4 -1 11 7 16 25 16 35 11 17 -7z
m-563 -75 c6 -28 2 -48 -8 -37 -10 11 -17 69 -8 69 5 0 12 -14 16 -32z m-28
-95 c-10 -10 -19 5 -10 18 6 11 8 11 12 0 2 -7 1 -15 -2 -18z m641 -135 c-2
-24 -4 -5 -4 42 0 47 2 66 4 43 2 -24 2 -62 0 -85z m-677 76 c0 -3 -7 -12 -15
-20 -16 -17 -18 -14 -9 10 6 15 24 23 24 10z m-97 -109 c-3 -9 -8 -14 -10 -11
-3 3 -2 9 2 15 9 16 15 13 8 -4z m-20 -55 c3 -11 1 -20 -4 -20 -5 0 -9 9 -9
20 0 11 2 20 4 20 2 0 6 -9 9 -20z m587 16 c0 -3 -4 -8 -10 -11 -5 -3 -10 -1
-10 4 0 6 5 11 10 11 6 0 10 -2 10 -4z m-80 -56 c0 -5 -4 -10 -10 -10 -5 0
-10 5 -10 10 0 6 5 10 10 10 6 0 10 -4 10 -10z m-568 -22 c-9 -9 -15 -9 -24 0
-9 9 -7 12 12 12 19 0 21 -3 12 -12z m-67 -7 c-6 -4 -23 -11 -40 -15 l-30 -6
25 15 c27 16 60 21 45 6z m33 -13 c-3 -7 -13 -15 -24 -17 -16 -3 -17 -1 -5 13
16 19 34 21 29 4z m62 2 c0 -5 -2 -10 -4 -10 -3 0 -8 5 -11 10 -3 6 -1 10 4
10 6 0 11 -4 11 -10z m-183 -16 c-3 -3 -12 -4 -19 -1 -8 3 -5 6 6 6 11 1 17
-2 13 -5z m56 -11 c-7 -2 -19 -2 -25 0 -7 3 -2 5 12 5 14 0 19 -2 13 -5z m-56
-65 c-2 -13 -4 -3 -4 22 0 25 2 35 4 23 2 -13 2 -33 0 -45z m-20 -80 c-2 -13
-4 -3 -4 22 0 25 2 35 4 23 2 -13 2 -33 0 -45z m-7 -102 c-7 -7 -10 1 -9 25 0
32 1 33 10 10 6 -16 6 -28 -1 -35z m650 -11 c0 -8 -4 -15 -9 -15 -5 0 -11 -10
-14 -22 -3 -22 -4 -22 -12 -4 -6 13 -5 21 3 24 7 2 12 10 12 18 0 8 5 14 10
14 6 0 10 -7 10 -15z m681 -32 c-8 -15 -10 -15 -11 -2 0 17 10 32 18 25 2 -3
-1 -13 -7 -23z m-705 -110 c-10 -10 -19 5 -10 18 6 11 8 11 12 0 2 -7 1 -15
-2 -18z m-419 -5 c-3 -8 -6 -5 -6 6 -1 11 2 17 5 13 3 -3 4 -12 1 -19z m1093
12 c0 -5 -2 -10 -4 -10 -3 0 -8 5 -11 10 -3 6 -1 10 4 10 6 0 11 -4 11 -10z
m-630 -10 c0 -5 -4 -10 -10 -10 -5 0 -10 5 -10 10 0 6 5 10 10 10 6 0 10 -4
10 -10z m-397 -17 c-7 -2 -19 -2 -25 0 -7 3 -2 5 12 5 14 0 19 -2 13 -5z m14
-50 c-3 -10 -5 -4 -5 12 0 17 2 24 5 18 2 -7 2 -21 0 -30z m963 33 c0 -3 -4
-8 -10 -11 -5 -3 -10 -1 -10 4 0 6 5 11 10 11 6 0 10 -2 10 -4z m20 -26 c0 -5
-4 -10 -10 -10 -5 0 -10 5 -10 10 0 6 5 10 10 10 6 0 10 -4 10 -10z m-1020
-14 c0 -8 -4 -18 -10 -21 -5 -3 -10 3 -10 14 0 12 5 21 10 21 6 0 10 -6 10
-14z m557 -22 c-3 -3 -12 -4 -19 -1 -8 3 -5 6 6 6 11 1 17 -2 13 -5z m333 -14
c0 -5 -8 -10 -17 -10 -15 0 -16 2 -3 10 19 12 20 12 20 0z m-883 -22 c-3 -8
-6 -5 -6 6 -1 11 2 17 5 13 3 -3 4 -12 1 -19z m933 2 c0 -5 -4 -10 -10 -10 -5
0 -10 5 -10 10 0 6 5 10 10 10 6 0 10 -4 10 -10z m-277 -7 c-7 -2 -19 -2 -25
0 -7 3 -2 5 12 5 14 0 19 -2 13 -5z m-33 -26 c10 -4 8 -6 -7 -6 -16 -1 -23 5
-23 17 0 10 3 13 8 6 4 -6 14 -14 22 -17z m105 16 c-22 -3 -43 -9 -46 -15 -4
-6 -13 -7 -20 -3 -19 12 16 24 66 23 l40 -1 -40 -4z m150 -3 c3 -5 -1 -10 -9
-10 -9 0 -16 5 -16 10 0 6 4 10 9 10 6 0 13 -4 16 -10z m-335 -10 c0 -5 -4
-10 -10 -10 -5 0 -10 5 -10 10 0 6 5 10 10 10 6 0 10 -4 10 -10z m285 0 c-27
-12 -35 -12 -35 0 0 6 12 10 28 9 24 0 25 -1 7 -9z m-715 -35 c0 -8 -7 -15
-16 -15 -14 0 -14 3 -4 15 7 8 14 15 16 15 2 0 4 -7 4 -15z m-51 -24 c7 -5 12
-13 10 -18 -2 -5 -12 -1 -21 9 -19 19 -13 24 11 9z m1305 -47 c3 -8 2 -12 -4
-9 -6 3 -10 10 -10 16 0 14 7 11 14 -7z m-67 -101 c-3 -10 -5 -4 -5 12 0 17 2
24 5 18 2 -7 2 -21 0 -30z m-26 -76 c-13 -13 -15 11 -4 40 7 16 8 15 11 -6 2
-13 -1 -28 -7 -34z m36 -4 c-3 -10 -5 -4 -5 12 0 17 2 24 5 18 2 -7 2 -21 0
-30z m-1210 5 c-3 -8 -6 -5 -6 6 -1 11 2 17 5 13 3 -3 4 -12 1 -19z m-17 -94
c0 -8 -5 -12 -10 -9 -6 4 -8 11 -5 16 9 14 15 11 15 -7z m930 -44 c0 -5 -4
-10 -10 -10 -5 0 -10 5 -10 10 0 6 5 10 10 10 6 0 10 -4 10 -10z m-560 -20 c0
-5 -2 -10 -4 -10 -3 0 -8 5 -11 10 -3 6 -1 10 4 10 6 0 11 -4 11 -10z m-223
-26 c-3 -3 -12 -4 -19 -1 -8 3 -5 6 6 6 11 1 17 -2 13 -5z m828 -34 c3 -5 1
-10 -4 -10 -6 0 -11 5 -11 10 0 6 2 10 4 10 3 0 8 -4 11 -10z m-35 -15 c0 -8
-4 -15 -10 -15 -5 0 -7 7 -4 15 4 8 8 15 10 15 2 0 4 -7 4 -15z m67 -7 c-3 -8
-6 -5 -6 6 -1 11 2 17 5 13 3 -3 4 -12 1 -19z"/>
<path d="M13497 3787 c-4 -10 -3 -26 3 -35 7 -13 9 -14 10 -3 0 11 4 9 15 -5
13 -17 14 -17 15 -1 0 9 6 17 13 17 6 0 4 5 -6 11 -9 5 -21 8 -26 4 -5 -3 -11
3 -13 12 -3 17 -4 17 -11 0z"/>
<path d="M13260 3729 c0 -5 5 -7 10 -4 6 3 10 8 10 11 0 2 -4 4 -10 4 -5 0
-10 -5 -10 -11z"/>
<path d="M13632 3699 c2 -7 15 -14 28 -16 27 -4 25 -1 -9 17 -19 9 -22 9 -19
-1z"/>
<path d="M13630 3650 c0 -5 7 -10 16 -10 12 0 14 -5 8 -17 -11 -26 -32 -147
-26 -156 6 -11 15 -1 17 21 6 58 19 119 27 129 6 7 8 20 4 28 -6 17 -46 21
-46 5z"/>
<path d="M13085 3480 c-3 -5 -1 -10 4 -10 6 0 11 5 11 10 0 6 -2 10 -4 10 -3
0 -8 -4 -11 -10z"/>
<path d="M13338 3473 c6 -2 18 -2 25 0 6 3 1 5 -13 5 -14 0 -19 -2 -12 -5z"/>
<path d="M13083 3453 c9 -2 23 -2 30 0 6 3 -1 5 -18 5 -16 0 -22 -2 -12 -5z"/>
<path d="M13193 3453 c37 -2 96 -2 130 0 34 2 4 3 -68 3 -71 0 -99 -1 -62 -3z"/>
<path d="M13640 3436 c0 -16 28 -42 36 -33 8 7 -14 47 -26 47 -6 0 -10 -6 -10
-14z"/>
<path d="M13480 3384 c0 -10 5 -26 10 -34 8 -11 9 -7 4 15 -8 37 -14 45 -14
19z"/>
<path d="M13510 3393 c0 -18 20 -66 25 -61 3 3 -1 20 -9 39 -9 19 -15 29 -16
22z"/>
<path d="M13535 3390 c3 -5 8 -10 11 -10 2 0 4 5 4 10 0 6 -5 10 -11 10 -5 0
-7 -4 -4 -10z"/>
<path d="M13710 3358 c0 -9 7 -22 17 -29 15 -13 15 -12 3 11 -17 34 -20 36
-20 18z"/>
<path d="M13410 3335 c0 -8 7 -15 16 -15 14 0 14 3 4 15 -7 8 -14 15 -16 15
-2 0 -4 -7 -4 -15z"/>
<path d="M13076 3325 c-7 -19 5 -19 30 0 19 14 19 14 -2 15 -12 0 -24 -7 -28
-15z"/>
<path d="M13380 3330 c0 -5 5 -10 10 -10 6 0 10 5 10 10 0 6 -4 10 -10 10 -5
0 -10 -4 -10 -10z"/>
<path d="M13115 3280 c-3 -5 1 -10 10 -10 9 0 13 5 10 10 -3 6 -8 10 -10 10
-2 0 -7 -4 -10 -10z"/>
<path d="M13265 3209 c-19 -8 -19 -8 3 -15 12 -3 22 -14 23 -23 0 -9 3 -11 5
-5 3 6 1 20 -3 31 -6 15 -13 18 -28 12z"/>
<path d="M13335 3130 c3 -11 8 -32 11 -47 9 -53 26 -95 35 -86 11 11 -8 83
-22 83 -6 0 -7 5 -4 11 9 14 -3 59 -16 59 -6 0 -8 -9 -4 -20z"/>
<path d="M13790 3130 c0 -5 4 -10 9 -10 6 0 13 5 16 10 3 6 -1 10 -9 10 -9 0
-16 -4 -16 -10z"/>
<path d="M13830 3120 c0 -4 9 -10 20 -13 11 -3 20 -2 20 3 0 4 -9 10 -20 13
-11 3 -20 2 -20 -3z"/>
<path d="M13897 3096 c-3 -6 8 -12 24 -13 17 -1 29 3 29 10 0 15 -47 19 -53 3z"/>
<path d="M14021 3004 c0 -11 3 -14 6 -6 3 7 2 16 -1 19 -3 4 -6 -2 -5 -13z"/>
<path d="M13970 2869 c0 -24 4 -38 10 -34 6 3 10 22 10 41 0 19 -4 34 -10 34
-5 0 -10 -18 -10 -41z"/>
<path d="M13368 2845 c-3 -14 -1 -25 3 -25 5 0 9 11 9 25 0 14 -2 25 -4 25 -2
0 -6 -11 -8 -25z"/>
<path d="M13991 2808 c0 -13 4 -32 9 -43 7 -15 9 -10 9 23 1 23 -3 42 -9 42
-5 0 -10 -10 -9 -22z"/>
<path d="M13330 2750 c0 -11 7 -20 15 -20 17 0 18 2 9 24 -9 23 -24 20 -24 -4z"/>
<path d="M13879 2736 c9 -11 5 -15 -19 -19 -35 -7 -41 -26 -7 -21 80 11 97 16
97 28 0 14 -29 26 -64 26 -14 0 -16 -3 -7 -14z"/>
<path d="M13280 2678 c-14 -13 -19 -23 -12 -26 18 -6 52 22 43 36 -5 9 -14 6
-31 -10z"/>
<path d="M13791 2663 c2 -31 3 -33 6 -10 2 15 9 27 14 27 5 0 9 5 9 10 0 6 -7
10 -15 10 -11 0 -15 -10 -14 -37z"/>
<path d="M13185 2623 c-19 -10 -25 -18 -17 -21 8 -2 19 1 25 7 16 16 27 14 27
-6 0 -15 2 -16 10 -3 12 19 13 33 1 26 -5 -4 -11 -2 -13 3 -1 5 -16 2 -33 -6z"/>
<path d="M13280 2601 c0 -6 5 -13 10 -16 6 -3 10 1 10 9 0 9 -4 16 -10 16 -5
0 -10 -4 -10 -9z"/>
<path d="M13746 2569 c-9 -11 -15 -26 -13 -32 2 -6 12 1 22 16 22 33 16 44 -9
16z"/>
<path d="M13081 2564 c0 -11 3 -14 6 -6 3 7 2 16 -1 19 -3 4 -6 -2 -5 -13z"/>
<path d="M13702 2500 c-17 -27 -15 -35 4 -16 8 9 14 21 12 26 -2 6 -9 1 -16
-10z"/>
<path d="M13646 2442 c-3 -6 -1 -14 5 -17 15 -10 25 3 12 16 -7 7 -13 7 -17 1z"/>
<path d="M13635 2400 c-3 -5 -2 -10 4 -10 5 0 13 5 16 10 3 6 2 10 -4 10 -5 0
-13 -4 -16 -10z"/>
<path d="M13540 2170 c0 -5 5 -10 10 -10 6 0 10 5 10 10 0 6 -4 10 -10 10 -5
0 -10 -4 -10 -10z"/>
<path d="M13075 2160 c-3 -5 1 -10 9 -10 9 0 16 5 16 10 0 6 -4 10 -9 10 -6 0
-13 -4 -16 -10z"/>
<path d="M13120 2161 c0 -6 9 -11 19 -11 11 0 21 -5 23 -10 2 -6 17 -12 33
-15 17 -2 24 -2 18 1 -7 3 -13 12 -13 20 0 8 -8 14 -17 14 -10 0 -28 3 -40 6
-14 4 -23 2 -23 -5z"/>
<path d="M13562 2120 c-7 -11 -10 -20 -7 -20 3 0 15 9 27 20 16 14 18 20 7 20
-8 0 -20 -9 -27 -20z"/>
<path d="M13274 2086 c-21 -16 -16 -30 8 -21 8 3 15 12 15 20 0 18 1 18 -23 1z"/>
<path d="M13505 2080 c3 -5 8 -10 11 -10 2 0 4 5 4 10 0 6 -5 10 -11 10 -5 0
-7 -4 -4 -10z"/>
<path d="M13460 2049 c0 -5 5 -7 10 -4 6 3 10 8 10 11 0 2 -4 4 -10 4 -5 0
-10 -5 -10 -11z"/>
<path d="M13335 2000 c-8 -13 20 -24 36 -15 8 6 7 10 -2 16 -18 11 -26 11 -34
-1z"/>
</g>
</svg>
